<svg id="undraw_friends_r511" xmlns="http://www.w3.org/2000/svg" width="747.344" height="712.083" viewBox="0 0 747.344 712.083">
  <ellipse id="Elipse_21" data-name="Elipse 21" cx="340.265" cy="38.018" rx="340.265" ry="38.018" transform="translate(66.813 599.637)" fill="#3f3d56"/>
  <path id="Caminho_34" data-name="Caminho 34" d="M811.992,702.031l5.868,18.081s28.263,29.2,18.041,37.113-33.156-33.806-33.156-33.806l-4.227-20.412Z" transform="translate(-236.163 -106.443)" fill="#ffb8b8"/>
  <path id="Caminho_35" data-name="Caminho 35" d="M755.647,554.643l8.554-2.851s13.307,3.8,15.208,17.108,16.158,80.789,16.158,80.789,5.7,2.851,1.9,7.6,19.009,47.523,19.009,47.523l-18.059,8.554S762.3,675.352,762.3,671.55s.95-7.6.95-11.406-.95-3.8,0-6.653a30.571,30.571,0,0,0,.95-7.6l-6.653-15.207Z" transform="translate(-234.039 -99.001)" fill="#fec63e"/>
  <ellipse id="Elipse_22" data-name="Elipse 22" cx="85.939" cy="175.35" rx="85.939" ry="175.35" transform="translate(0 170.141)" fill="#fec63e"/>
  <path id="Caminho_36" data-name="Caminho 36" d="M296.217,434.1c4.287-76.328,12.924-127.886,13.011-128.4l-1.874-.317c-.087.512-8.739,52.152-13.033,128.579C290.359,504.506,289.4,611.2,307.354,718.9l1.875-.312C291.308,611.069,292.263,504.538,296.217,434.1Z" transform="translate(-211.068 -86.795)" fill="#3f3d56"/>
  <rect id="Retângulo_19" data-name="Retângulo 19" width="88.132" height="1.901" transform="translate(85.047 351.519) rotate(-28.157)" fill="#3f3d56"/>
  <rect id="Retângulo_20" data-name="Retângulo 20" width="1.901" height="88.132" transform="translate(3.016 332.45) rotate(-61.858)" fill="#3f3d56"/>
  <ellipse id="Elipse_23" data-name="Elipse 23" cx="117.601" cy="239.952" rx="117.601" ry="239.952" transform="translate(171.877 0)" fill="#e6e6e6"/>
  <path id="Caminho_37" data-name="Caminho 37" d="M509.647,321.27c5.867-104.466,17.689-175.029,17.808-175.73l-1.874-.317c-.119.7-11.956,71.347-17.83,175.911-5.422,96.508-6.73,242.48,17.83,389.835l1.875-.312C502.926,563.484,504.232,417.675,509.647,321.27Z" transform="translate(-221.598 -78.86)" fill="#3f3d56"/>
  <rect id="Retângulo_21" data-name="Retângulo 21" width="120.601" height="1.901" transform="translate(288.422 248.51) rotate(-28.157)" fill="#3f3d56"/>
  <rect id="Retângulo_22" data-name="Retângulo 22" width="1.901" height="120.601" transform="translate(176.171 221.8) rotate(-61.858)" fill="#3f3d56"/>
  <ellipse id="Elipse_24" data-name="Elipse 24" cx="43.939" cy="89.652" rx="43.939" ry="89.652" transform="translate(147.571 394.102)" fill="#e6e6e6"/>
  <path id="Caminho_38" data-name="Caminho 38" d="M406.084,584.846l.26.486,39.727-21.264-.9-1.676-39.008,20.879c2.159-39.731,6.574-66.4,6.663-66.927l-1.874-.317c-.1.573-5.343,32.246-7.2,78.076l-39.343-21.058-.9,1.677,39.727,21.264.474-.887c-1.49,37.826-.655,85.123,7.242,132.5l1.875-.312C404.22,675.63,404.031,624.068,406.084,584.846Z" transform="translate(-214.613 -97.229)" fill="#3f3d56"/>
  <path id="Caminho_39" data-name="Caminho 39" d="M761.739,458.441c-15.278-26.038-45.5-27.252-45.5-27.252s-29.454-3.8-48.348,35.858c-17.611,36.963-41.916,72.652-3.913,81.3l6.865-21.55,4.251,23.155a147.431,147.431,0,0,0,16.26.28c40.7-1.325,79.458.388,78.21-14.343C767.9,516.31,776.439,483.495,761.739,458.441Z" transform="translate(-228.5 -93.022)" fill="#2f2e41"/>
  <path id="Caminho_40" data-name="Caminho 40" d="M655.536,678.623a58.189,58.189,0,0,1-1.852,8.044c-.909,2.578-2.312,4.961-3.143,7.566-2.649,8.3,1.023,17.557,6.888,23.964a38.7,38.7,0,0,0,18.9,11.321c5.291,1.342,10.792,1.535,16.244,1.722,15.1.516,30.584.978,44.89-3.916a77.672,77.672,0,0,0,13.042-5.976,9.777,9.777,0,0,0,3.384-2.688,9.458,9.458,0,0,0,1.221-5.514c-.032-6.456-1.33-12.878-1.022-19.327.171-3.572.833-7.141.507-10.7a19.684,19.684,0,0,0-14.958-17.006c-4.058-.879-8.268-.4-12.4,0a313.479,313.479,0,0,1-32.269,1.455c-11.008-.071-21.949-1.766-32.9-1.943-3.239-.052-3.174.955-4.205,4.117A77.612,77.612,0,0,0,655.536,678.623Z" transform="translate(-228.789 -104.64)" fill="#2f2e41"/>
  <path id="Caminho_41" data-name="Caminho 41" d="M608.967,673.728a32.3,32.3,0,0,0-9.061-.971,22.868,22.868,0,0,0-16.518,8.662,23.278,23.278,0,0,0-4.477,18.227,38.521,38.521,0,0,0,3.59,9.9c2.4,4.919,5.285,9.826,9.733,12.978a37.778,37.778,0,0,0,8.59,4.124l23.429,8.9c3.447,1.31,6.894,2.619,10.375,3.834a201.4,201.4,0,0,0,54.189,10.866c5.626.338,11.337.432,16.825-.86a5.464,5.464,0,0,0,3.446-1.878,5.992,5.992,0,0,0,.77-2.565l1.442-10.18a8.6,8.6,0,0,0-.122-4.292c-.66-1.711-2.316-2.787-3.894-3.7-15.4-8.923-33.388-13.846-46.353-26.093-3.052-2.883-5.606-7.453-9.315-9.412-4.205-2.221-9.158-3.488-13.5-5.535C628.608,681.258,619.265,676.117,608.967,673.728Z" transform="translate(-225.266 -104.992)" fill="#2f2e41"/>
  <path id="Caminho_42" data-name="Caminho 42" d="M634.615,688.1c8.281,2.617,43.245,20.751,49.237,27.082-.8.292-28.058-15.114-28.876-15.362-7.434-2.25-14.909-4.516-21.969-7.809-1.42-.662-9.226-3.777-8.873-5.584C624.534,684.386,633.145,687.633,634.615,688.1Z" transform="translate(-227.523 -105.637)" opacity="0.1"/>
  <path id="Caminho_43" data-name="Caminho 43" d="M742.09,758.716a1.934,1.934,0,0,0,1.313-.39,2.058,2.058,0,0,0,.41-1.524l-.039-13.869c-3.954-1.9-8.377-2.509-12.718-3.095L710.8,737.108c.465.063-3.167,8.8-2.61,9.966.982,2.056,8.484,3.878,10.6,4.849C726.152,755.3,733.8,759.007,742.09,758.716Z" transform="translate(-231.685 -108.181)" fill="#ffb8b8"/>
  <path id="Caminho_44" data-name="Caminho 44" d="M676.345,742.668c-3.824.614-8.093,1.158-10.57,4.16-3.141,3.808-1.8,9.485-.306,14.2a6.136,6.136,0,0,0,1.3,2.584c1.023,1.017,2.589,1.167,4.023,1.258,3.488.223,7.2.4,10.247-1.328a44.933,44.933,0,0,0,3.98-2.984,25.416,25.416,0,0,1,7.319-3.375,73.456,73.456,0,0,1,14.691-3.054,22.673,22.673,0,0,0,5.787-1.029,6.439,6.439,0,0,0,4.076-3.991c.706-2.52-.746-5.09-2.139-7.3-1.735-2.753-3.573-5.653-6.16-7.68-3.774-2.957-5.641-.687-9.443,1.205A79.628,79.628,0,0,1,676.345,742.668Z" transform="translate(-229.492 -107.963)" fill="#ffb8b8"/>
  <path id="Caminho_45" data-name="Caminho 45" d="M664.072,746.373l-24.284-7.24a31.9,31.9,0,0,0-9.037-1.766,10.8,10.8,0,0,0-8.3,3.385c-1.883,2.229-2.422,5.276-2.891,8.166l-1,6.182a31.312,31.312,0,0,0-.562,9.494c.459,3.15,2.053,6.3,4.824,7.821,3.36,1.849,7.479.946,11.229.173a121.254,121.254,0,0,1,23.012-2.489c2.907-.035,5.955,0,8.524-1.371a10.746,10.746,0,0,0,5.194-8.554C671.256,754.893,669.511,747.994,664.072,746.373Z" transform="translate(-227.213 -108.194)" fill="#2f2e41"/>
  <path id="Caminho_46" data-name="Caminho 46" d="M753.367,739.949c3.148-.556,5.926-2.361,8.943-3.426,4.246-1.5,8.847-1.5,13.346-1.483a8.506,8.506,0,0,1,4.785.967c1.981,1.331,2.489,3.993,2.826,6.37l2.033,14.341a22.7,22.7,0,0,1,.166,8.125c-.6,2.658-2.392,5.22-5.007,5.905-3.175.833-6.288-1.213-9.287-2.557-7.494-3.359-16.2-2.5-24.019-5.011-1.45-.466-3-1.178-3.595-2.593a5.946,5.946,0,0,1-.28-2.478c.134-4.61-.83-10.9.546-15.31C745.061,738.836,749.853,739.949,753.367,739.949Z" transform="translate(-233.416 -108.078)" fill="#2f2e41"/>
  <path id="Caminho_47" data-name="Caminho 47" d="M802.7,667.64a41.818,41.818,0,0,1,14.855-1.024c3.971.441,8.063,1.556,10.962,4.328,3.529,3.375,4.663,8.593,4.758,13.5a42.4,42.4,0,0,1-9.087,26.931,24.319,24.319,0,0,1-5.2,5.045,34.07,34.07,0,0,1-6.759,3.286l-52.469,20.874c-13.8,5.492-27.655,11-42.053,14.619a3.266,3.266,0,0,1-4.41-1.613,109.939,109.939,0,0,1-11.5-21.218,1.918,1.918,0,0,1-.148-1.589,1.885,1.885,0,0,1,.775-.665L739.539,708.6a37.512,37.512,0,0,0,7.554-5.25,18.913,18.913,0,0,0,3.878-5.446c.769-1.621.841-5.445,1.824-6.643.962-1.173,4.253-1.266,5.773-1.728a52.082,52.082,0,0,0,6.285-2.4c8.3-3.746,15.694-9.189,23.652-13.575A60.394,60.394,0,0,1,802.7,667.64Z" transform="translate(-231.359 -104.676)" fill="#2f2e41"/>
  <path id="Caminho_48" data-name="Caminho 48" d="M782.73,684.392c-6.376,4.83-14.632,9.27-20.951,14.228-2.157,1.692-38.109,22.08-38.617,24.787,5.9,1,43.45-25.5,48.823-28.142s10.136-6.373,14.856-10.075c1.2-.943,6.3-3.779,2.847-4.833C787.744,679.765,784.166,683.427,782.73,684.392Z" transform="translate(-232.43 -105.367)" opacity="0.1"/>
  <circle id="Elipse_25" data-name="Elipse 25" cx="36.118" cy="36.118" r="36.118" transform="translate(450.324 358.695)" fill="#ffb8b8"/>
  <path id="Caminho_49" data-name="Caminho 49" d="M732.22,522.544s-5.7,14.257,4.752,19.96-32.316,51.325-32.316,51.325L685.647,538.7s16.158-5.7,13.306-20.91Z" transform="translate(-230.571 -97.317)" fill="#ffb8b8"/>
  <path id="Caminho_50" data-name="Caminho 50" d="M706.576,562.173l23.018-25.411,31.158,15.907L756,664.823l-7.6,8.554s-32.316,28.514-81.74,4.752c0,0-17.108-14.257-16.158-36.118s-1.9-24.712-1.9-24.712l-.95-76.987,46.925-9.208Z" transform="translate(-228.689 -97.976)" fill="#fec63e"/>
  <path id="Caminho_51" data-name="Caminho 51" d="M597.238,691.031l-5.868,18.081s-28.263,29.2-18.041,37.114,33.156-33.806,33.156-33.806l4.227-20.412Z" transform="translate(-224.897 -105.898)" fill="#ffb8b8"/>
  <path id="Caminho_52" data-name="Caminho 52" d="M652.477,543.643l-8.554-2.851s-13.307,3.8-15.207,17.108-16.158,80.789-16.158,80.789-5.7,2.851-1.9,7.6-19.009,47.523-19.009,47.523l18.059,8.554s36.118-38.018,36.118-41.82-.95-7.6-.95-11.406.95-3.8,0-6.653a30.57,30.57,0,0,1-.95-7.6l6.653-15.207Z" transform="translate(-225.915 -98.456)" fill="#fec63e"/>
  <path id="Caminho_53" data-name="Caminho 53" d="M549.775,381l-29.863-15.777-41.238,6.454-8.532,38.01,21.239-.824,5.933-13.964v13.733l9.8-.38,5.689-22.231,3.555,23.667,34.839-.718Z" transform="translate(-23.29 -18.092)" fill="#2f2e41"/>
  <path id="Caminho_54" data-name="Caminho 54" d="M529.329,714.167V768.99H361.877a54.825,54.825,0,0,1,54.82-54.823c15.7-4.895,33.858-6.454,53.552-5.94C488.83,708.7,508.78,711.031,529.329,714.167Z" transform="translate(-214.532 -106.746)" fill="#ff6584"/>
  <path id="Caminho_55" data-name="Caminho 55" d="M306.037,684.178H384.78a4.984,4.984,0,0,1,4.984,4.984h0a4.984,4.984,0,0,1-4.984,4.984H306.037v-9.967Z" transform="translate(-15.16 -33.893)" fill="#3f3d56"/>
  <path id="Caminho_56" data-name="Caminho 56" d="M527.238,663.623l21.106-25.585a5.54,5.54,0,0,1,10.327.885l8.323,29.387Z" transform="translate(-222.724 -103.117)" fill="#3f3d56"/>
  <path id="Caminho_57" data-name="Caminho 57" d="M500.3,676.862l7.974-32.194A5.54,5.54,0,0,1,517.974,641l20.208,22.9Z" transform="translate(-221.39 -103.327)" fill="#ff6584"/>
  <path id="Caminho_58" data-name="Caminho 58" d="M155.024,696.762h15.948v33.89A15.948,15.948,0,0,1,155.024,746.6h0Z" transform="translate(-7.68 -34.516)" fill="#ff6584"/>
  <path id="Caminho_59" data-name="Caminho 59" d="M302.891,686.275h78.743a4.984,4.984,0,0,1,4.984,4.984h0a4.984,4.984,0,0,1-4.984,4.984H302.891Z" transform="translate(-15.005 -33.997)" fill="#ff6584"/>
  <path id="Caminho_60" data-name="Caminho 60" d="M534.954,714.172v54.518a53.839,53.839,0,0,1-59.081-60.459C494.455,708.707,514.405,711.036,534.954,714.172Z" transform="translate(-220.157 -106.751)" opacity="0.2"/>
  <circle id="Elipse_26" data-name="Elipse 26" cx="53.825" cy="53.825" r="53.825" transform="translate(260.974 554.597)" fill="#ff6584"/>
  <ellipse id="Elipse_27" data-name="Elipse 27" cx="5.981" cy="13.954" rx="5.981" ry="13.954" transform="translate(360.649 598.454)" fill="#3f3d56"/>
  <ellipse id="Elipse_28" data-name="Elipse 28" cx="1.495" cy="3.489" rx="1.495" ry="3.489" transform="translate(350.681 594.467)" fill="#3f3d56"/>
  <ellipse id="Elipse_29" data-name="Elipse 29" cx="1.495" cy="3.489" rx="1.495" ry="3.489" transform="translate(361.646 587.49)" fill="#3f3d56"/>
  <path id="Caminho_61" data-name="Caminho 61" d="M533.151,657.836s-2.992-5.2-2.992-8.379" transform="translate(-222.869 -103.839)" fill="#3f3d56"/>
  <path id="Caminho_62" data-name="Caminho 62" d="M534.692,654.315s1.63-5.777,3.9-8" transform="translate(-223.093 -103.684)" fill="#3f3d56"/>
</svg>
