<svg xmlns="http://www.w3.org/2000/svg" width="711.517" height="526.283" viewBox="0 0 711.517 526.283">
  <g id="undraw_love_re_mwbq" transform="translate(0 0)">
    <path id="Caminho_63" data-name="Caminho 63" d="M140.266,496.3h10.985l5.225-42.368H140.264Z" transform="translate(5.48 17.735)" fill="#9e616a"/>
    <path id="Caminho_64" data-name="Caminho 64" d="M395.188,688.2h3.092l12.071-4.909,6.47,4.908h0a13.786,13.786,0,0,1,13.786,13.785v.449H395.189Z" transform="translate(-252.243 -177.744)" fill="#2f2e41"/>
    <path id="Caminho_65" data-name="Caminho 65" d="M189.379,496.3h10.985l5.225-42.368H189.377Z" transform="translate(7.399 17.735)" fill="#9e616a"/>
    <path id="Caminho_66" data-name="Caminho 66" d="M444.3,688.2h3.092l12.071-4.909,6.47,4.908h0A13.787,13.787,0,0,1,479.72,701.98v.449H444.3Z" transform="translate(-250.325 -177.744)" fill="#2f2e41"/>
    <path id="Caminho_67" data-name="Caminho 67" d="M458.693,468.318l-86.3,2.252,1.5,42.026s-1.5,11.257,1.5,14.259,4.5,3,3,8.255,6.429,13.833,5.466,14.8-3.215,6.216-3.215,6.216l7.5,42.777s5.253,74.3,6.754,75.8,3,0,1.5,3.752-3,2.251-1.5,3.752a55.3,55.3,0,0,1,3.752,4.5H416.8s1.368-7.5,1.368-8.255,1.5-5.253,1.5-6-1.327-2.077-1.327-2.077a24.691,24.691,0,0,1-.925-4.677c0-1.5-4.5-59.287-4.5-59.287l9.006-75.047L443.683,604.9s0,64.54,1.5,66.041,1.5.75.75,3.752-3.752,2.251-1.5,4.5,3-1.5,2.251,2.251l-.75,3.752,22.514.322s3-6.326,1.5-8.577-1.411-1.637.42-5.321,2.582-4.435,1.831-5.185-.75-4.742-.75-4.742L467.7,589.894s-.75-75.8-.75-78.049a7.486,7.486,0,0,1,.624-3.376v-3.056L464.7,494.585Z" transform="translate(-253.134 -186.143)" fill="#2f2e41"/>
    <path id="Caminho_68" data-name="Caminho 68" d="M551.383,311.22a8.38,8.38,0,0,1-12.063,4.428l-37.463,31.385-2.036-15.341,36.642-28.05a8.426,8.426,0,0,1,14.92,7.578Z" transform="translate(-248.155 -192.724)" fill="#9e616a"/>
    <circle id="Elipse_30" data-name="Elipse 30" cx="23.264" cy="23.264" r="23.264" transform="translate(114.774 84.92)" fill="#9e616a"/>
    <path id="Caminho_69" data-name="Caminho 69" d="M410.347,278.882c-2.166-5.162-11.448-8.227-26.136-7.766s-17.26,17.977-17.26,17.977c-8.09,7.54,4.971,31.083,7.237,27.837s6.07-.178,6.07-.178l-3.626-20.394c3.829,1.473,7.947,2.462,11.548.746l-5.967-3.191,14.836,1.846-6.118-4.707.445-.15a21.743,21.743,0,0,0,7.751,1.76c3.119-.023,6.434-1.485,7.741-4.317a6.378,6.378,0,0,0,.554-2.469c4.3,1.4,6.559,6.435,6.559,6.435A79.384,79.384,0,0,0,410.347,278.882Z" transform="translate(-253.449 -193.85)" fill="#2f2e41"/>
    <path id="Caminho_70" data-name="Caminho 70" d="M410.508,324.46c-5.2,0-8.541.717-16.625,2.078-14.921,2.515-5.985,16.692-5.985,16.692s.675-.343-1.153,0-8.063,5.736-8.063,5.736l-11.149,9.9c-16.8,13.186-13.04,33.759-13.04,33.759l24.5,24.657-10.734,49.47s4.561,7.346,2.2,10.64,20.781,2.348,20.781,2.348c15.97,7.118,72.236,1.1,72.236,1.1-.779-2.037-8.313-17.82-8.313-17.82,3.273-5.653.156-13.82.156-13.82s-3.252-38.633-5.33-43.973,5.32-34.279,10.183-33.967,36.274-15.711,36.274-15.711-.79-1.257,9.58-5.5a50.823,50.823,0,0,0,16.1-10.152l4.26-8.51c-2.047.79-8.957-12.24-8.957-12.24l-3.013,1.149-1.746-.5s-13.622,3.876-16.407,6.7-3.72,2.037-6.234,2.67-2.826,2.4-3.616,2.2-2.192,2.192-3.294,1.881-3.46.946-5.029,1.257-12.718,5.029-12.718,5.029c-6.9-3.491-25.6-2.078-25.6-2.078s-6.12-3.606-7.855,0a5.912,5.912,0,0,1-5.33,3.46l-7.461-3.19C418.688,339.317,410.55,322.821,410.508,324.46Z" transform="translate(-253.848 -191.971)" fill="#fec63e"/>
    <path id="Caminho_71" data-name="Caminho 71" d="M374.436,512.635a8.38,8.38,0,0,1,1.87-12.713l-10.571-41.551,14.451,5.537,8.031,39.237a8.426,8.426,0,0,1-13.783,9.49Z" transform="translate(-253.394 -186.532)" fill="#9e616a"/>
    <path id="Caminho_72" data-name="Caminho 72" d="M355.485,382.261l-1.305,16.592s-1.623,18.229-1.2,21.6,1.216,23.956,1.216,23.956l13.756,27.212,15.586-4.156-.933-12.766.933,11.726,2.078-10.391-5.2-17.664,3.117-6.234-1.572-20.928Z" transform="translate(-253.895 -189.505)" fill="#fec63e"/>
    <path id="Caminho_73" data-name="Caminho 73" d="M710.617,346.758l5.146,1.1a29.622,29.622,0,0,1,.8-6.389,19.184,19.184,0,0,0,2.9,7.178l29.512,6.3,28.334-29.9c.043-14.951-8.259-26.312-23.145-26.312-.9,0-1.827.043-2.767.13a31.483,31.483,0,0,0-36.042,24.744C704.8,334,708.628,340.109,710.617,346.758Z" transform="translate(-240.011 -192.781)" fill="#2f2e41"/>
    <path id="Caminho_74" data-name="Caminho 74" d="M439.541,486.276h-10.7l-5.092-41.291h15.8Z" transform="translate(16.556 17.386)" fill="#ffb6b6"/>
    <path id="Caminho_75" data-name="Caminho 75" d="M702.569,702.04h-7.6l-1.356-7.172-3.473,7.172H670a4.529,4.529,0,0,1-2.574-8.256l16.089-11.112v-7.25l16.922,1.01Z" transform="translate(-241.684 -178.051)" fill="#2f2e41"/>
    <path id="Caminho_76" data-name="Caminho 76" d="M560.929,474.859l-9.311,5.283-24.806-33.4,13.742-7.8Z" transform="translate(20.583 17.15)" fill="#ffb6b6"/>
    <path id="Caminho_77" data-name="Caminho 77" d="M832.247,685.8l-6.607,3.749-4.719-5.568.519,7.951-17.522,9.943a4.529,4.529,0,0,1-6.312-5.91l8.51-17.6-3.578-6.306,15.217-7.473Z" transform="translate(-236.539 -178.475)" fill="#2f2e41"/>
    <path id="Caminho_78" data-name="Caminho 78" d="M658.9,351.907a9.481,9.481,0,0,1,7.641,12.367l16.381,14.179-6.188,12.056-22.852-20.348a9.532,9.532,0,0,1,5.018-18.254Z" transform="translate(-242.369 -190.696)" fill="#ffb6b6"/>
    <path id="Caminho_79" data-name="Caminho 79" d="M672.524,395.5l-10.956-17.43L673.75,365.61l8.652,10.528,10.718,4.782,14.709,8.962c2.925-3.442,25.462-29.333,35.519-21.879a10.124,10.124,0,0,1,4.36,7.256c.71,6.931-5.5,13.981-5.737,14.242l-13.284,17.92c-.413,1.126-4.809,12.73-11.668,15.852a7.8,7.8,0,0,1-6.271.2c-18.176-7.086-30.422-15.078-35.887-23.354A21.006,21.006,0,0,1,672.524,395.5Z" transform="translate(-241.836 -190.156)" fill="#2f2e41"/>
    <path id="Caminho_80" data-name="Caminho 80" d="M712.123,429.384s-31.476,50.137-25.774,55.84,14.576,7.2,14.576,7.2l19.639-25.448Z" transform="translate(-240.895 -187.664)" fill="#2f2e41"/>
    <path id="Caminho_81" data-name="Caminho 81" d="M739.1,363.484l-14.835,10.035a38.266,38.266,0,0,0-14.909,43.654l4.176,12.694Z" transform="translate(-240.044 -190.239)" fill="#2f2e41"/>
    <path id="Caminho_82" data-name="Caminho 82" d="M508.851,300.648l1.984,6.908,6.767,83.3,33.811,63.013L535.275,465.4,489.169,405.46l-18.236-59.516-28.64,131.75-21.516-1.537,14.943-182.67,28.357-51.416Z" transform="translate(16.44 9.458)" fill="#2f2e41"/>
    <path id="Caminho_83" data-name="Caminho 83" d="M742.193,365.912l-20.647,16.875a28.119,28.119,0,0,0-9.334,14.374h0a28.121,28.121,0,0,0-.987,7.871l.615,36.641-18.931,50.593s51.323,19.389,58.166,2.281S742.193,365.912,742.193,365.912Z" transform="translate(-240.611 -190.144)" fill="#fec63e"/>
    <path id="Caminho_84" data-name="Caminho 84" d="M712.8,478.084,709.374,464.4l.836-34.053c.066-1.979,10.614-32.775,23.906-65.486l11.435-11.435,6.165-4.012,13.57,12.526s-1.725,34.286-1.167,69.385c.155,9.711-1.552,21.052-2.281,29.653l6.235,27.7V504.1l-.406.082c-.4.082-6.653-.111-32.292-.111C714.131,504.072,728.274,489.01,712.8,478.084Z" transform="translate(-239.968 -190.789)" fill="#2f2e41"/>
    <path id="Caminho_85" data-name="Caminho 85" d="M500.7,194.141l3.118,19.455-21.1,8.7Z" transform="translate(18.86 7.585)" opacity="0.2"/>
    <circle id="Elipse_31" data-name="Elipse 31" cx="20.659" cy="20.659" r="20.659" transform="translate(477.65 113.657)" fill="#ffb6b6"/>
    <path id="Caminho_86" data-name="Caminho 86" d="M772.386,426.9h0a37.947,37.947,0,0,1-45.551,9.207l-4.5-2.225Z" transform="translate(-239.462 -187.761)" opacity="0.2"/>
    <path id="Caminho_87" data-name="Caminho 87" d="M701.412,422.524a9.481,9.481,0,0,1,14.531.439l20.859-5.856,6.65,11.808-29.573,7.856a9.532,9.532,0,0,1-12.467-14.247Z" transform="translate(-240.375 -188.144)" fill="#ffb6b6"/>
    <path id="Caminho_88" data-name="Caminho 88" d="M745.18,437.172l-20.583-.463-3.68-17.029,13.553-1.418,9.9-6.308,15.584-7.335c-1.261-4.337-10.445-37.412,1.317-41.7a10.124,10.124,0,0,1,8.457.36c6.175,3.227,8.635,12.3,8.723,12.636l7.633,20.961c.712.965,7.973,11.028,6.8,18.472a7.8,7.8,0,0,1-3.285,5.346c-15.929,11.262-29.347,17.077-39.264,17.076a21.005,21.005,0,0,1-5.15-.6Z" transform="translate(-239.517 -190.29)" fill="#2f2e41"/>
    <path id="Caminho_89" data-name="Caminho 89" d="M713.349,313.623c1.654,2.151,7.351,4.054,14.118,5.589-.011-.14-.011-.281-.011-.422a29.622,29.622,0,0,1,.8-6.389,19.186,19.186,0,0,0,2.9,7.178c.108.162.216.324.335.486,5.805,1.146,11.945,2.032,16.756,2.627-3.308,11.913-15.988,21.685-14.616,28.928l37.155,7.589a29.129,29.129,0,0,1,.714-8.973,19.312,19.312,0,0,0,5.383,10.215l3.157.649.94-4.638c8.151-19.577-3.211-39.62-21.826-49.987a22.628,22.628,0,0,0-14.334-9.621l-4.638-.951a22.735,22.735,0,0,0-26.831,17.718Z" transform="translate(-239.813 -192.898)" fill="#2f2e41"/>
    <path id="Caminho_90" data-name="Caminho 90" d="M275.365,677.427l-.5-11.255a36.35,36.35,0,0,0-16.955-4.292c8.143,6.658,7.126,19.491,12.646,28.444a21.865,21.865,0,0,0,16.034,10.1L293.4,704.6a36.638,36.638,0,0,0-7.722-29.689,35.389,35.389,0,0,0-6.5-6.043C277.545,673.171,275.365,677.427,275.365,677.427Z" transform="translate(-257.607 -178.581)" fill="#f2f2f2"/>
    <path id="Caminho_91" data-name="Caminho 91" d="M258.856,703.34H967.9a1.237,1.237,0,1,0,0-2.474H258.856a1.237,1.237,0,1,0,0,2.474Z" transform="translate(-257.618 -177.057)" fill="#cacaca"/>
    <path id="Caminho_92" data-name="Caminho 92" d="M632.395,264.849c2.571,11.294,3.793,24.1-3.064,34.206a23.483,23.483,0,0,1-12.155,9.208,34.491,34.491,0,0,1-15.489.951c-11.7-1.62-22.089-7.712-33.591-10.077-5.076-1.044-10.463-1.389-15.349.62-3.661,1.505-7.517,4.531-7.535,8.847-.018,4.432,3.832,7.374,7.66,8.737,5.109,1.818,10.418,1.115,15.717.885,5.707-.247,11.526.269,16.268,3.764A28.293,28.293,0,0,1,593.9,334.25c2.383,5.784,3.35,12,4.874,18.036A80.082,80.082,0,0,0,604.52,368a81.414,81.414,0,0,0,19.892,25.784c4.093,3.523,9.067,7.111,14.657,7.434,4.312.249,9.553-1.563,11.215-5.93a8.515,8.515,0,0,0-3.987-10.109c-3.7-1.865-7.719.8-8.913,4.446a5.691,5.691,0,0,0,.593,5.132c1.12,1.671-1.579,3.233-2.692,1.573-2.584-3.853-1.233-9.035,1.931-12.122a9.078,9.078,0,0,1,11.948-.89,11.805,11.805,0,0,1,4.315,12.2c-1.329,4.8-6.043,7.848-10.75,8.6-5.813.934-11.407-1.351-16.1-4.651A72.168,72.168,0,0,1,613.883,387.7,84.623,84.623,0,0,1,597,357.512c-3.431-10.995-3.681-25.519-13.876-32.944-5.246-3.821-11.674-3.4-17.825-3.046-5.43.31-10.726.253-15.708-2.2-4.113-2.03-7.432-5.776-7.5-10.549-.069-4.818,3.352-8.693,7.382-10.888,10.648-5.8,23.435-1.122,33.9,2.752,10.52,3.9,22.531,8.469,33.711,4.369a20.911,20.911,0,0,0,11.552-11.038c2.707-5.741,3.092-12.255,2.467-18.486a80.453,80.453,0,0,0-1.714-9.8c-.445-1.953,2.56-2.787,3.006-.829Z" transform="translate(-246.504 -194.136)" fill="#3f3d56"/>
    <path id="Caminho_93" data-name="Caminho 93" d="M610.709,235.783a104.782,104.782,0,0,0,13.778,28.928q2.244,3.273,4.717,6.38a33.767,33.767,0,0,1,4.624-6.463c6.286-6.91,14.713-11.43,22.891-15.96s16.48-9.393,22.257-16.739a29.509,29.509,0,0,0,5.445-11.212c1.309-5.538.81-11.315-2.421-15.939-4.7-6.723-14.059-9.092-22.018-7.149s-14.641,7.481-19.815,13.84c1.694-7.814-6.546-15.357-14.516-14.672s-14.36,7.658-16.48,15.368S608.423,228.114,610.709,235.783Z" transform="translate(-243.924 -196.753)" fill="#fec63e"/>
    <g id="Grupo_3" data-name="Grupo 3" transform="translate(380.562 23.963)" opacity="0.2">
      <path id="Caminho_94" data-name="Caminho 94" d="M623.871,263.809q2.244,3.273,4.717,6.38a33.757,33.757,0,0,1,4.624-6.463c6.286-6.91,14.713-11.43,22.891-15.96s16.48-9.393,22.257-16.739a29.509,29.509,0,0,0,5.445-11.212,78.725,78.725,0,0,0-47.693,25.3,76.589,76.589,0,0,0-12.24,18.693Z" transform="translate(-623.871 -219.815)"/>
    </g>
  </g>
</svg>
