<?xml version="1.0" encoding="UTF-8" standalone="no"?>
<!-- Created with Inkscape (http://www.inkscape.org/) -->

<svg
   width="1740px"
   height="470px"
   viewBox="0 0 1740 470"
   version="1.1"
   id="SVGRoot"
   sodipodi:docname="logo-remake-black.svg"
   inkscape:version="1.1.2 (b8e25be833, 2022-02-05)"
   xmlns:inkscape="http://www.inkscape.org/namespaces/inkscape"
   xmlns:sodipodi="http://sodipodi.sourceforge.net/DTD/sodipodi-0.dtd"
   xmlns="http://www.w3.org/2000/svg"
   xmlns:svg="http://www.w3.org/2000/svg">
  <sodipodi:namedview
     id="namedview1809"
     pagecolor="#ffffff"
     bordercolor="#666666"
     borderopacity="1.0"
     inkscape:pageshadow="2"
     inkscape:pageopacity="0.0"
     inkscape:pagecheckerboard="0"
     inkscape:document-units="px"
     showgrid="false"
     inkscape:zoom="0.37014941"
     inkscape:cx="567.33847"
     inkscape:cy="356.61275"
     inkscape:window-width="1920"
     inkscape:window-height="1017"
     inkscape:window-x="-8"
     inkscape:window-y="-8"
     inkscape:window-maximized="1"
     inkscape:current-layer="g1967"
     inkscape:lockguides="true" />
  <defs
     id="defs1804">
    <symbol
       id="t"
       overflow="visible">
      <path
         d="m18.766-1.125c-0.96875 0.5-1.9805 0.875-3.0312 1.125-1.043 0.25781-2.1367 0.39062-3.2812 0.39062-3.3984 0-6.0898-0.94531-8.0781-2.8438-1.9922-1.9062-2.9844-4.4844-2.9844-7.7344 0-3.2578 0.99219-5.8359 2.9844-7.7344 1.9883-1.9062 4.6797-2.8594 8.0781-2.8594 1.1445 0 2.2383 0.13281 3.2812 0.39062 1.0508 0.25 2.0625 0.625 3.0312 1.125v4.2188c-0.98047-0.65625-1.9453-1.1406-2.8906-1.4531-0.94922-0.3125-1.9492-0.46875-3-0.46875-1.875 0-3.3516 0.60547-4.4219 1.8125-1.0742 1.1992-1.6094 2.8555-1.6094 4.9688 0 2.1055 0.53516 3.7617 1.6094 4.9688 1.0703 1.1992 2.5469 1.7969 4.4219 1.7969 1.0508 0 2.0508-0.14844 3-0.45312 0.94531-0.3125 1.9102-0.80078 2.8906-1.4688z"
         id="path1837" />
    </symbol>
    <symbol
       id="c"
       overflow="visible">
      <path
         d="m13.734-11.141c-0.4375-0.19531-0.87109-0.34375-1.2969-0.4375-0.41797-0.10156-0.83984-0.15625-1.2656-0.15625-1.2617 0-2.2305 0.40625-2.9062 1.2188-0.67969 0.80469-1.0156 1.9531-1.0156 3.4531v7.0625h-4.8906v-15.312h4.8906v2.5156c0.625-1 1.3438-1.7266 2.1562-2.1875 0.82031-0.46875 1.8008-0.70312 2.9375-0.70312 0.16406 0 0.34375 0.011719 0.53125 0.03125 0.19531 0.011719 0.47656 0.039062 0.84375 0.078125z"
         id="path1840" />
    </symbol>
    <symbol
       id="a"
       overflow="visible">
      <path
         d="m17.641-7.7031v1.4062h-11.453c0.125 1.1484 0.53906 2.0078 1.25 2.5781 0.70703 0.57422 1.7031 0.85938 2.9844 0.85938 1.0312 0 2.082-0.14844 3.1562-0.45312 1.082-0.3125 2.1914-0.77344 3.3281-1.3906v3.7656c-1.1562 0.4375-2.3125 0.76562-3.4688 0.98438-1.1562 0.22656-2.3125 0.34375-3.4688 0.34375-2.7734 0-4.9297-0.70312-6.4688-2.1094-1.5312-1.4062-2.2969-3.3789-2.2969-5.9219 0-2.5 0.75391-4.4609 2.2656-5.8906 1.5078-1.4375 3.582-2.1562 6.2188-2.1562 2.4062 0 4.332 0.73047 5.7812 2.1875 1.4453 1.4492 2.1719 3.3828 2.1719 5.7969zm-5.0312-1.625c0-0.92578-0.27344-1.6719-0.8125-2.2344-0.54297-0.57031-1.25-0.85938-2.125-0.85938-0.94922 0-1.7188 0.26562-2.3125 0.79688s-0.96484 1.2969-1.1094 2.2969z"
         id="path1843" />
    </symbol>
    <symbol
       id="j"
       overflow="visible">
      <path
         d="m9.2188-6.8906c-1.0234 0-1.793 0.17188-2.3125 0.51562-0.51172 0.34375-0.76562 0.85547-0.76562 1.5312 0 0.625 0.20703 1.1172 0.625 1.4688 0.41406 0.34375 0.98828 0.51562 1.7188 0.51562 0.92578 0 1.7031-0.32812 2.3281-0.98438 0.63281-0.66406 0.95312-1.4922 0.95312-2.4844v-0.5625zm7.4688-1.8438v8.7344h-4.9219v-2.2656c-0.65625 0.92969-1.3984 1.6055-2.2188 2.0312-0.82422 0.41406-1.8242 0.625-3 0.625-1.5859 0-2.8711-0.45703-3.8594-1.375-0.99219-0.92578-1.4844-2.1289-1.4844-3.6094 0-1.7891 0.61328-3.1016 1.8438-3.9375 1.2383-0.84375 3.1797-1.2656 5.8281-1.2656h2.8906v-0.39062c0-0.76953-0.30859-1.332-0.92188-1.6875-0.61719-0.36328-1.5703-0.54688-2.8594-0.54688-1.0547 0-2.0312 0.10547-2.9375 0.3125-0.89844 0.21094-1.7305 0.52344-2.5 0.9375v-3.7344c1.0391-0.25 2.0859-0.44141 3.1406-0.57812 1.0625-0.13281 2.125-0.20312 3.1875-0.20312 2.7578 0 4.75 0.54688 5.9688 1.6406 1.2266 1.0859 1.8438 2.8555 1.8438 5.3125z"
         id="path1846" />
    </symbol>
    <symbol
       id="b"
       overflow="visible">
      <path
         d="m7.7031-19.656v4.3438h5.0469v3.5h-5.0469v6.5c0 0.71094 0.14062 1.1875 0.42188 1.4375s0.83594 0.375 1.6719 0.375h2.5156v3.5h-4.1875c-1.9375 0-3.3125-0.39844-4.125-1.2031-0.80469-0.8125-1.2031-2.1797-1.2031-4.1094v-6.5h-2.4219v-3.5h2.4219v-4.3438z"
         id="path1849" />
    </symbol>
    <symbol
       id="f"
       overflow="visible">
      <path
         d="m12.766-13.078v-8.2031h4.9219v21.281h-4.9219v-2.2188c-0.66797 0.90625-1.4062 1.5703-2.2188 1.9844s-1.7578 0.625-2.8281 0.625c-1.8867 0-3.4336-0.75-4.6406-2.25-1.2109-1.5-1.8125-3.4258-1.8125-5.7812 0-2.3633 0.60156-4.2969 1.8125-5.7969 1.207-1.5 2.7539-2.25 4.6406-2.25 1.0625 0 2 0.21484 2.8125 0.64062 0.82031 0.42969 1.5664 1.0859 2.2344 1.9688zm-3.2188 9.9219c1.0391 0 1.8359-0.37891 2.3906-1.1406 0.55078-0.76953 0.82812-1.8828 0.82812-3.3438 0-1.457-0.27734-2.5664-0.82812-3.3281-0.55469-0.76953-1.3516-1.1562-2.3906-1.1562-1.043 0-1.8398 0.38672-2.3906 1.1562-0.55469 0.76172-0.82812 1.8711-0.82812 3.3281 0 1.4609 0.27344 2.5742 0.82812 3.3438 0.55078 0.76172 1.3477 1.1406 2.3906 1.1406z"
         id="path1852" />
    </symbol>
    <symbol
       id="i"
       overflow="visible">
      <path
         d="m10.5-3.1562c1.0508 0 1.8516-0.37891 2.4062-1.1406 0.55078-0.76953 0.82812-1.8828 0.82812-3.3438 0-1.457-0.27734-2.5664-0.82812-3.3281-0.55469-0.76953-1.3555-1.1562-2.4062-1.1562-1.0547 0-1.8594 0.38672-2.4219 1.1562-0.55469 0.77344-0.82812 1.8828-0.82812 3.3281 0 1.4492 0.27344 2.5586 0.82812 3.3281 0.5625 0.77344 1.3672 1.1562 2.4219 1.1562zm-3.25-9.9219c0.67578-0.88281 1.4219-1.5391 2.2344-1.9688 0.82031-0.42578 1.7656-0.64062 2.8281-0.64062 1.8945 0 3.4453 0.75 4.6562 2.25 1.207 1.5 1.8125 3.4336 1.8125 5.7969 0 2.3555-0.60547 4.2812-1.8125 5.7812-1.2109 1.5-2.7617 2.25-4.6562 2.25-1.0625 0-2.0078-0.21094-2.8281-0.625-0.8125-0.42578-1.5586-1.0859-2.2344-1.9844v2.2188h-4.8906v-21.281h4.8906z"
         id="path1855" />
    </symbol>
    <symbol
       id="e"
       overflow="visible">
      <path
         d="m0.34375-15.312h4.8906l4.125 10.391 3.5-10.391h4.8906l-6.4375 16.766c-0.64844 1.6953-1.4023 2.8828-2.2656 3.5625-0.86719 0.6875-2 1.0312-3.4062 1.0312h-2.8438v-3.2188h1.5312c0.83203 0 1.4375-0.13672 1.8125-0.40625 0.38281-0.26172 0.67969-0.73047 0.89062-1.4062l0.14062-0.42188z"
         id="path1858" />
    </symbol>
    <symbol
       id="h"
       overflow="visible">
      <path
         d="m1.5938-15.312h13.359v3.4219l-8.0625 8.3906h8.0625v3.5h-13.688v-3.4219l8.0625-8.3906h-7.7344z"
         id="path1861" />
    </symbol>
    <symbol
       id="s"
       overflow="visible">
      <path
         d="m2.3594-15.312h4.8906v15.312h-4.8906zm0-5.9688h4.8906v4h-4.8906z"
         id="path1864" />
    </symbol>
    <symbol
       id="g"
       overflow="visible">
      <path
         d="m17.75-9.3281v9.3281h-4.9219v-7.1406c0-1.3203-0.03125-2.2344-0.09375-2.7344s-0.16797-0.86719-0.3125-1.1094c-0.1875-0.3125-0.44922-0.55469-0.78125-0.73438-0.32422-0.17578-0.69531-0.26562-1.1094-0.26562-1.0234 0-1.8242 0.39844-2.4062 1.1875-0.58594 0.78125-0.875 1.8711-0.875 3.2656v7.5312h-4.8906v-15.312h4.8906v2.2344c0.73828-0.88281 1.5195-1.5391 2.3438-1.9688 0.83203-0.42578 1.75-0.64062 2.75-0.64062 1.7695 0 3.1133 0.54688 4.0312 1.6406 0.91406 1.0859 1.375 2.6562 1.375 4.7188z"
         id="path1867" />
    </symbol>
    <symbol
       id="r"
       overflow="visible">
      <path
         d="m12.422-21.281v3.2188h-2.7031c-0.6875 0-1.1719 0.125-1.4531 0.375-0.27344 0.25-0.40625 0.6875-0.40625 1.3125v1.0625h4.1875v3.5h-4.1875v11.812h-4.8906v-11.812h-2.4375v-3.5h2.4375v-1.0625c0-1.6641 0.46094-2.8984 1.3906-3.7031 0.92578-0.80078 2.3672-1.2031 4.3281-1.2031z"
         id="path1870" />
    </symbol>
    <symbol
       id="d"
       overflow="visible">
      <path
         d="m9.6406-12.188c-1.0859 0-1.9141 0.39062-2.4844 1.1719-0.57422 0.78125-0.85938 1.9062-0.85938 3.375s0.28516 2.5938 0.85938 3.375c0.57031 0.77344 1.3984 1.1562 2.4844 1.1562 1.0625 0 1.875-0.38281 2.4375-1.1562 0.57031-0.78125 0.85938-1.9062 0.85938-3.375s-0.28906-2.5938-0.85938-3.375c-0.5625-0.78125-1.375-1.1719-2.4375-1.1719zm0-3.5c2.6328 0 4.6914 0.71484 6.1719 2.1406 1.4766 1.418 2.2188 3.3867 2.2188 5.9062 0 2.5117-0.74219 4.4805-2.2188 5.9062-1.4805 1.418-3.5391 2.125-6.1719 2.125-2.6484 0-4.7148-0.70703-6.2031-2.125-1.4922-1.4258-2.2344-3.3945-2.2344-5.9062 0-2.5195 0.74219-4.4883 2.2344-5.9062 1.4883-1.4258 3.5547-2.1406 6.2031-2.1406z"
         id="path1873" />
    </symbol>
    <symbol
       id="q"
       overflow="visible">
      <path
         d="m16.547-12.766c0.61328-0.94531 1.3477-1.6719 2.2031-2.1719 0.85156-0.5 1.7891-0.75 2.8125-0.75 1.7578 0 3.0977 0.54688 4.0156 1.6406 0.92578 1.0859 1.3906 2.6562 1.3906 4.7188v9.3281h-4.9219v-7.9844-0.35938c0.007813-0.13281 0.015625-0.32031 0.015625-0.5625 0-1.082-0.16406-1.8633-0.48438-2.3438-0.3125-0.48828-0.82422-0.73438-1.5312-0.73438-0.92969 0-1.6484 0.38672-2.1562 1.1562-0.51172 0.76172-0.77344 1.8672-0.78125 3.3125v7.5156h-4.9219v-7.9844c0-1.6953-0.14844-2.7852-0.4375-3.2656-0.29297-0.48828-0.8125-0.73438-1.5625-0.73438-0.9375 0-1.6641 0.38672-2.1719 1.1562-0.51172 0.76172-0.76562 1.8594-0.76562 3.2969v7.5312h-4.9219v-15.312h4.9219v2.2344c0.60156-0.86328 1.2891-1.5156 2.0625-1.9531 0.78125-0.4375 1.6406-0.65625 2.5781-0.65625 1.0625 0 2 0.25781 2.8125 0.76562 0.8125 0.51172 1.4258 1.2305 1.8438 2.1562z"
         id="path1876" />
    </symbol>
    <symbol
       id="p"
       overflow="visible">
      <path
         d="m17.75-9.3281v9.3281h-4.9219v-7.1094c0-1.3438-0.03125-2.2656-0.09375-2.7656s-0.16797-0.86719-0.3125-1.1094c-0.1875-0.3125-0.44922-0.55469-0.78125-0.73438-0.32422-0.17578-0.69531-0.26562-1.1094-0.26562-1.0234 0-1.8242 0.39844-2.4062 1.1875-0.58594 0.78125-0.875 1.8711-0.875 3.2656v7.5312h-4.8906v-21.281h4.8906v8.2031c0.73828-0.88281 1.5195-1.5391 2.3438-1.9688 0.83203-0.42578 1.75-0.64062 2.75-0.64062 1.7695 0 3.1133 0.54688 4.0312 1.6406 0.91406 1.0859 1.375 2.6562 1.375 4.7188z"
         id="path1879" />
    </symbol>
    <symbol
       id="o"
       overflow="visible">
      <path
         d="m2.5781-20.406h5.875l7.4219 14v-14h4.9844v20.406h-5.875l-7.4219-14v14h-4.9844z"
         id="path1882" />
    </symbol>
    <symbol
       id="n"
       overflow="visible">
      <path
         d="m2.1875-5.9688v-9.3438h4.9219v1.5312c0 0.83594-0.007813 1.875-0.015625 3.125-0.011719 1.25-0.015625 2.0859-0.015625 2.5 0 1.2422 0.03125 2.1328 0.09375 2.6719 0.070313 0.54297 0.17969 0.93359 0.32812 1.1719 0.20703 0.32422 0.47266 0.57422 0.79688 0.75 0.32031 0.16797 0.69141 0.25 1.1094 0.25 1.0195 0 1.8203-0.39062 2.4062-1.1719 0.58203-0.78125 0.875-1.8672 0.875-3.2656v-7.5625h4.8906v15.312h-4.8906v-2.2188c-0.74219 0.89844-1.5234 1.5586-2.3438 1.9844-0.82422 0.41406-1.7344 0.625-2.7344 0.625-1.7617 0-3.1055-0.53906-4.0312-1.625-0.92969-1.082-1.3906-2.6602-1.3906-4.7344z"
         id="path1885" />
    </symbol>
    <symbol
       id="m"
       overflow="visible">
      <path
         d="m2.5781-20.406h8.7344c2.5938 0 4.582 0.57812 5.9688 1.7344 1.3945 1.1484 2.0938 2.7891 2.0938 4.9219 0 2.1367-0.69922 3.7812-2.0938 4.9375-1.3867 1.1562-3.375 1.7344-5.9688 1.7344h-3.4844v7.0781h-5.25zm5.25 3.8125v5.7031h2.9219c1.0195 0 1.8047-0.25 2.3594-0.75 0.5625-0.5 0.84375-1.2031 0.84375-2.1094 0-0.91406-0.28125-1.6172-0.84375-2.1094-0.55469-0.48828-1.3398-0.73438-2.3594-0.73438z"
         id="path1888" />
    </symbol>
    <symbol
       id="l"
       overflow="visible">
      <path
         d="m2.3594-15.312h4.8906v15.031c0 2.0508-0.49609 3.6172-1.4844 4.7031-0.98047 1.082-2.4062 1.625-4.2812 1.625h-2.4219v-3.2188h0.85938c0.92578 0 1.5625-0.21094 1.9062-0.625 0.35156-0.41797 0.53125-1.2461 0.53125-2.4844zm0-5.9688h4.8906v4h-4.8906z"
         id="path1891" />
    </symbol>
    <symbol
       id="k"
       overflow="visible">
      <path
         d="m14.719-14.828v3.9844c-0.65625-0.45703-1.3242-0.79688-2-1.0156-0.66797-0.21875-1.3594-0.32812-2.0781-0.32812-1.3672 0-2.4336 0.40234-3.2031 1.2031-0.76172 0.79297-1.1406 1.9062-1.1406 3.3438 0 1.4297 0.37891 2.543 1.1406 3.3438 0.76953 0.79297 1.8359 1.1875 3.2031 1.1875 0.75781 0 1.4844-0.10938 2.1719-0.32812 0.6875-0.22656 1.3203-0.56641 1.9062-1.0156v4c-0.76172 0.28125-1.5391 0.48828-2.3281 0.625-0.78125 0.14453-1.5742 0.21875-2.375 0.21875-2.7617 0-4.9219-0.70703-6.4844-2.125-1.5547-1.4141-2.3281-3.3828-2.3281-5.9062 0-2.5312 0.77344-4.5039 2.3281-5.9219 1.5625-1.4141 3.7227-2.125 6.4844-2.125 0.80078 0 1.5938 0.074219 2.375 0.21875 0.78125 0.13672 1.5547 0.35156 2.3281 0.64062z"
         id="path1894" />
    </symbol>
  </defs>
  <g
     inkscape:label="Camada 1"
     inkscape:groupmode="layer"
     id="layer1">
    <g
       id="g1967"
       transform="matrix(1.3333333,0,0,1.3333333,-169.37204,-457.34534)">
      <path
         d="m 212.43639,379.3288 c -4.00548,0.28257 -7.80721,2.6509 -9.84608,6.13204 -29.51813,50.25658 -51.56983,102.2567 -52.21416,166.3834 -6.59522,0.41366 -12.72391,1.40118 -17.88075,3.13153 l 2.59266,7.9616 c 4.14239,-1.38956 9.53437,-2.35671 15.54731,-2.74123 0.22431,5.56685 0.67001,11.00274 1.55556,16.31321 -2.95972,1.3225 -5.61346,2.61302 -7.77515,3.65296 l 3.62678,7.56783 c 1.84401,-0.88848 3.77824,-1.89352 5.82906,-2.87231 0.73117,3.09364 1.51773,6.14658 2.46155,9.13538 -3.24809,2.42367 -6.12914,5.12992 -8.94,7.96158 l 5.96015,5.87275 c 1.99256,-2.00709 3.91516,-3.82485 5.82905,-5.47951 20.50503,52.18731 73.5753,85.99943 128.00731,85.99943 h 49.75244 c 57.21289,0 109.19959,-34.45273 128.65611,-85.34317 1.68665,1.50312 3.41992,3.05293 5.18233,4.82989 l 5.96016,-5.87275 c -2.58975,-2.6072 -5.22605,-5.16489 -8.16219,-7.4371 0.91473,-3.04995 1.77987,-6.11452 2.46155,-9.26665 1.7508,0.84771 3.45781,1.71001 5.05414,2.47901 l 3.6268,-7.56782 c -2.04207,-0.98461 -4.50073,-2.27221 -7.25648,-3.52485 0.76319,-5.35133 1.23809,-10.85731 1.29633,-16.44146 5.90772,0.39327 11.20631,1.37203 15.28779,2.74121 l 2.59848,-7.96456 c -5.18816,-1.74199 -11.36666,-2.7237 -18.00828,-3.13153 -1.7537,-65.93141 -27.58067,-109.34129 -51.69512,-157.24802 -2.04789,-3.99384 -6.3709,-6.70008 -10.83046,-6.77867 -4.46284,-0.0786 -8.87587,2.46737 -11.06389,6.38835 l -21.11953,38.36491 c -41.99743,-6.7496 -84.28421,-7.75427 -129.43914,-3.65297 l -25.52464,-43.45462 c -2.32464,-3.96759 -6.96512,-6.43788 -11.52999,-6.13205 z m 12.43904,57.02645 7.12538,12.00502 c 1.98966,3.41411 5.67178,5.77081 9.58658,6.13205 -0.86522,19.66309 5.6863,50.58246 24.87734,50.11041 16.90158,-0.45444 23.86684,-17.60931 26.82075,-31.31836 2.36252,11.90882 11.02883,22.70424 22.93169,22.96675 16.03652,-0.14565 21.8071,-12.86114 25.52465,-25.31435 0.67583,15.38101 7.44874,33.29606 24.2278,33.66669 24.54847,-0.17477 27.81408,-30.59869 28.76343,-49.84864 3.64713,-4.79202 6.23979,-10.61196 9.19951,-16.05069 -0.39617,2.39161 -0.6467,4.8299 -0.6467,7.4371 -0.008,4.62594 2.75867,9.1503 6.86608,11.22124 5.38921,2.71497 11.36368,4.57351 17.23047,4.69879 11.97817,27.1295 20.52815,55.15613 21.37904,90.9512 -3.11699,0.48647 -6.24852,1.08364 -9.19952,1.82647 l 2.07407,8.08985 c 2.32755,-0.58552 4.76866,-1.03121 7.25648,-1.43616 -0.0816,3.17234 -0.40491,6.3126 -0.77781,9.39492 -2.59848,0 -5.33671,0.24178 -8.16219,0.65253 l 1.29633,8.22035 c 1.9634,-0.28257 3.77242,-0.47192 5.56982,-0.52144 -0.37287,1.78279 -0.82732,3.60345 -1.29633,5.35133 -1.42154,-0.25927 -2.85478,-0.46609 -4.40452,-0.65253 l -1.03704,8.35161 c 1.03704,0.12527 1.89353,0.24178 2.84898,0.39326 -15.22664,41.899 -57.92955,70.59829 -105.98543,70.59829 h -49.75244 c -44.51434,0 -88.33362,-27.78798 -104.94885,-70.72954 0.62632,-0.0874 1.1536,-0.18352 1.81485,-0.25927 l -1.03704,-8.35161 c -1.23218,0.14565 -2.34789,0.32918 -3.49858,0.52145 -0.49232,-1.67502 -1.01376,-3.37622 -1.42453,-5.08912 1.56435,0.0699 3.10536,0.14565 4.79492,0.39325 l 1.29634,-8.22036 c -2.63339,-0.38451 -5.20859,-0.62048 -7.6439,-0.65253 -0.47192,-3.07911 -0.83606,-6.21063 -1.03704,-9.3949 2.40042,0.39618 4.74541,0.86813 6.99719,1.43616 l 2.07407,-8.08986 c -2.9917,-0.75156 -6.16985,-1.33712 -9.3278,-1.82648 0.2418,-36.73693 8.27033,-68.82714 21.11954,-99.57201 7.2652,1.08074 14.97309,-1.01667 21.76683,-4.43659 4.32301,-2.63046 6.79039,-7.54769 6.73796,-12.65754 z m 12.56732,68.2477 c -4.57933,0 -8.29344,7.47759 -8.29344,16.70322 0,9.22562 3.71127,16.70321 8.29344,16.70321 4.57933,0 8.29344,-7.47759 8.29344,-16.70321 0,-9.22563 -3.71128,-16.70322 -8.29344,-16.70322 z m 149.25361,0 c -4.57932,0 -8.29344,7.47759 -8.29344,16.70322 0,9.22562 3.71128,16.70321 8.29344,16.70321 4.57933,0 8.29344,-7.47759 8.29344,-16.70321 0,-9.22563 -3.71128,-16.70322 -8.29344,-16.70322 z m -74.62681,45.93348 c -6.86899,0 -12.43904,3.74036 -12.43904,8.35161 0,2.47028 1.60507,4.73377 4.1453,6.26306 v 19.18284 c -4.51527,3.57145 -9.73273,5.57274 -12.82608,5.35132 -5.59601,-1.07492 -7.31764,-7.11375 -8.03392,-11.22422 -0.54767,-3.8831 -4.13949,-7.09331 -8.03393,-7.17781 -4.9114,-0.0874 -9.21369,5.05705 -8.29344,9.91917 2.58096,12.80893 10.16079,24.07045 23.06294,25.18607 8.25243,0.59428 15.89111,-2.48482 22.4134,-7.3089 6.52528,4.82408 14.16023,7.90044 22.4134,7.3089 13.86939,-2.14111 21.0002,-13.3041 23.06294,-25.18607 0.94381,-4.94929 -3.55392,-10.16675 -8.54998,-9.91917 -3.8045,0.20101 -7.24187,3.37621 -7.77515,7.17781 -0.86812,5.92226 -3.25973,9.67754 -8.03393,11.22422 -3.09364,0.2214 -8.31133,-1.77987 -12.82607,-5.35132 V 565.1511 c 2.54016,-1.52937 4.1453,-3.79278 4.1453,-6.26306 0,-4.6114 -5.56984,-8.35161 -12.43905,-8.35161 z"
         id="path1899"
         style="stroke-width:0.745746" />
      <text
         xml:space="preserve"
         style="font-style:normal;font-weight:normal;font-size:283.631px;line-height:1.25;font-family:sans-serif;fill:#000000;fill-opacity:1;stroke:none;stroke-width:1.47725"
         x="498.10925"
         y="635.05103"
         id="text6956"><tspan
           id="tspan6954"
           style="font-style:normal;font-variant:normal;font-weight:bold;font-stretch:normal;font-size:283.631px;font-family:Ubuntu;-inkscape-font-specification:'Ubuntu Bold';stroke-width:1.47725"
           x="498.10925"
           y="635.05103"
           sodipodi:role="line">CatNip</tspan></text>
    </g>
  </g>
</svg>
